# xmcd
#
# Track frame offsets: 
#        150
#        19395
#        36130
#        51477
#        69672
#        87572
#        106445
#        125260
#        144312
#        162230
#        177457
#        192640
#
# Disc length: 2896 seconds
#
# Revision: 8
# Processed by: cddbd v1.5.2PL0 Copyright (c) Steve Scherf et al.
# Submitted via: ExactAudioCopyFreeDBPlugin 1.0
#
DISCID=b30b4e0c
DTITLE=Montgomery Gentry - You Do Your Thing
DYEAR=2004
DGENRE=Country
TTITLE0=Something To Be Proud Of
TTITLE1=You Do Your Thing
TTITLE2=If You Ever Stop Loving Me
TTITLE3=If It's The Last Thing I Do
TTITLE4=She Loved Me
TTITLE5=Gone
TTITLE6=All I Know About Mexico
TTITLE7=I Got Drunk
TTITLE8=It's All Good
TTITLE9=I Ain't Got It All That Bad (Featuring Hank Williams, Jr.)
TTITLE10=Talking To My Angel
TTITLE11=I Never Thought I'd Live This Long
EXTD=YEAR: 2004
EXTT0=
EXTT1=
EXTT2=
EXTT3=
EXTT4=
EXTT5=
EXTT6=
EXTT7=
EXTT8=
EXTT9=
EXTT10=
EXTT11=
PLAYORDER=
